{"title":"Dark.Was.the.Night.2014.XViD.AC3-Sorrow","uid":12160150,"size":1305688842,"categoryP":"video","categoryS":"movies","magnet":"?xt=urn:btih:0fa4b39712c64426095fbae593844d9e7f858ed4&amp;dn=Dark.Was.the.Night.2014.XViD.AC3-Sorrow&amp;tr=udp%3A%2F%2Ftracker.openbittorrent.com%3A80&amp;tr=udp%3A%2F%2Fopen.demonii.com%3A1337&amp;tr=udp%3A%2F%2Ftracker.coppersurfer.tk%3A6969&amp;tr=udp%3A%2F%2Fexodus.desync.com%3A6969","seeders":1,"leechers":0,"uploader":null,"files":2,"time":1437876898,"description":"Dark Was the Night 2014 XViD AC3-Sorrow\n\nGeneral\nComplete name                            : Dark.Was.the.Night.2014.XViD.AC3-Sorrow.avi\nFormat                                   : AVI\nFormat/Info                              : Audio Video Interleave\nFile size                                : 1.22 GiB\nDuration                                 : 1h 38mn\nOverall bit rate                         : 1 767 Kbps\nWriting application                      : Lavf55.19.104\nWriting library                          : \n\nVideo\nID                                       : 0\nFormat                                   : MPEG-4 Visual\nFormat profile                           : Simple@L3\nFormat settings, BVOP                    : No\nFormat settings, QPel                    : No\nFormat settings, GMC                     : No warppoints\nFormat settings, Matrix                  : Default (H.263)\nCodec ID                                 : XVID\nCodec ID/Hint                            : XviD\nDuration                                 : 1h 38mn\nBit rate                                 : 1 308 Kbps\nWidth                                    : 720 pixels\nHeight                                   : 304 pixels\nDisplay aspect ratio                     : 2.40:1\nFrame rate                               : 23.976 fps\nColor space                              : YUV\nChroma subsampling                       : 4:2:0\nBit depth                                : 8 bits\nScan type                                : Progressive\nCompression mode                         : Lossy\nBits/(Pixel*Frame)                       : 0.249\nStream size                              : 922 MiB (74%)\nWriting library                          : XviD 64\n\nAudio\nID                                       : 1\nFormat                                   : AC-3\nFormat/Info                              : Audio Coding 3\nMode extension                           : CM (complete main)\nFormat settings, Endianness              : Big\nCodec ID                                 : 2000\nDuration                                 : 1h 38mn\nBit rate mode                            : Constant\nBit rate                                 : 448 Kbps\nChannel count                            : 2 channels\nChannel positions                        : Front: L R\nSampling rate                            : 48.0 KHz\nBit depth                                : 16 bits\nCompression mode                         : Lossy\nStream size                              : 316 MiB (25%)\nAlignment                                : Aligned on interleaves\nInterleave, duration                     : 32 ms (0.77 video frame)\nInterleave, preload duration             : 512 ms\n\n\nDrama;Horror:Thriller\n\nAn evil is unleashed in a small town when a logging company sets up shop in the neighboring woods.\n\n\nDirector: Jack Heller \n\nWriter: Tyler Hisel \n\nStars: Steve Agee, Nick Damici, Kevin Durand\n &lt;a href=&quot;\nhttp://www.imdb.com/title/tt2251281/&quot; rel=&quot;nofollow&quot; target=&quot;_NEW&quot;&gt;\nhttp://www.imdb.com/title/tt2251281/&lt;/a&gt;","torrent":{"xt":"urn:btih:0fa4b39712c64426095fbae593844d9e7f858ed4","amp;dn":"Dark.Was.the.Night.2014.XViD.AC3-Sorrow","amp;tr":["udp%3A%2F%2Ftracker.openbittorrent.com%3A80","udp%3A%2F%2Fopen.demonii.com%3A1337","udp%3A%2F%2Ftracker.coppersurfer.tk%3A6969","udp%3A%2F%2Fexodus.desync.com%3A6969"],"infoHash":"0fa4b39712c64426095fbae593844d9e7f858ed4","infoHashBuffer":{"type":"Buffer","data":[15,164,179,151,18,198,68,38,9,95,186,229,147,132,77,158,127,133,142,212]},"announce":[],"urlList":[]}}